<svg width="100" height="24" viewBox="0 0 100 24" fill="none" xmlns="http://www.w3.org/2000/svg">
<path fill-rule="evenodd" clip-rule="evenodd" d="M15.677 4.815H5.418V9.471H11.406C12.436 9.471 12.771 9.798 12.771 10.803V12.989C12.771 13.969 12.436 14.295 11.406 14.295H5.418V21.782C5.418 22.795 5.05 23.114 4.053 23.114H1.365C0.365001 23.114 0 22.787 0 21.782V1.332C0 0.319 0.368001 0 1.365 0H17.026C18.626 0 18.952 0.159 19.656 1.105L23.383 7.126L27.076 1.105C27.762 0.0919995 28.1 0 29.529 0H32.72C33.62 0 33.851 0.62 33.348 1.273L26.632 11.306L33.683 21.791C34.219 22.478 33.983 23.123 33.021 23.123H29.831C28.198 23.123 27.838 23.056 27.168 21.951L23.148 15.5L19.354 21.95C18.654 22.988 18.354 23.122 16.691 23.122H13.7C12.737 23.122 12.536 22.502 13.038 21.79L19.99 11.339L15.677 4.815Z" fill="#4F4F4F"/>
<path fill-rule="evenodd" clip-rule="evenodd" d="M43.4866 14.2541C43.2548 14.2561 43.0248 14.2122 42.8099 14.125C42.595 14.0378 42.3995 13.909 42.2345 13.746C42.0696 13.5831 41.9385 13.3891 41.8488 13.1753C41.759 12.9614 41.7124 12.732 41.7116 12.5001V5.24309C41.7158 4.77594 41.905 4.32949 42.2377 4.00149C42.5704 3.6735 43.0195 3.49069 43.4866 3.49309H44.5666V9.23901e-05C42.6894 -0.00643101 40.8271 0.332547 39.0726 1.00009C38.0176 1.48609 37.8496 1.74509 37.8496 2.78409V22.1091C37.8496 22.8541 38.1096 23.1091 38.8716 23.1091H40.6886C41.4506 23.1091 41.6766 22.8491 41.6766 22.1091V17.1601C42.6224 17.4271 43.5887 17.6147 44.5656 17.7211V14.2451H43.4856L43.4866 14.2541ZM61.2506 8.38309C58.7796 8.38309 57.4236 9.58309 57.4236 11.6911V12.4001H65.0446V11.6881C65.0446 9.58809 63.7636 8.38009 61.2506 8.38009V8.38309ZM61.2506 5.19809C66.4936 5.19809 68.8716 8.18809 68.8716 11.9141V13.8901C68.8716 14.7361 68.5446 15.2901 67.3896 15.2901H57.4236V16.4901C57.4236 18.6001 58.7716 19.7391 61.1836 19.7391C61.9258 19.8144 62.6748 19.6958 63.3574 19.3949C64.04 19.0939 64.6327 18.6209 65.0776 18.0221C65.6056 17.3101 65.9656 17.2101 66.7606 17.6281L67.9166 18.2481C68.6786 18.6081 68.7706 19.1611 68.3106 19.8731C67.1216 21.7911 64.9106 22.9881 61.1836 22.9881C55.7736 22.9881 53.5966 20.0321 53.5966 16.0451V12.2191C53.6036 7.70009 56.2746 5.20009 61.2506 5.20009V5.19809ZM76.9786 5.19809C80.8056 5.19809 82.9786 6.56309 84.0386 8.67309C84.4326 9.41809 84.2386 9.81209 83.5106 10.1301L82.0286 10.7161C81.2996 11.0431 81.0736 10.9421 80.6466 10.2641C80.0856 9.29309 79.1976 8.57209 77.0876 8.57209C74.9436 8.57209 73.9876 9.15809 73.9876 10.3221C73.9876 11.8461 75.3106 12.1061 77.8486 12.3321C81.7766 12.7261 84.5736 13.5971 84.5736 17.5581C84.5736 20.7401 82.1366 22.9761 77.4466 22.9761C73.5526 22.9761 71.0816 21.5761 70.0936 19.0481C69.8336 18.3701 69.9936 17.9431 70.7556 17.6831L72.2376 17.2311C72.8996 17.0051 73.2596 17.0971 73.5856 17.8511C74.1136 19.1161 75.3026 19.6351 77.3126 19.6351C79.6576 19.6351 80.8046 18.9821 80.8046 17.7171C80.8046 16.1931 79.5146 15.9001 76.8436 15.6401C73.6106 15.3131 70.1856 14.6401 70.1856 10.4141C70.1856 7.34509 72.4296 5.20009 76.9776 5.20009L76.9786 5.19809ZM92.5786 15.5911C90.0786 15.5911 89.4126 16.3701 89.4126 17.7011C89.4126 19.0321 89.9406 19.8781 92.5126 19.8781C93.6186 19.9033 94.7242 19.8162 95.8126 19.6181C96.0726 19.5181 96.1726 19.4591 96.1726 19.1661V15.7611C95.4856 15.7191 93.8726 15.5941 92.5796 15.5941L92.5786 15.5911ZM92.9396 5.20109C98.3496 5.20109 99.9996 8.05709 99.9996 11.8841V20.2921C99.9996 21.4311 99.7396 21.7491 98.8106 22.1431C96.9011 22.7917 94.8873 23.0786 92.8726 22.9891C87.0356 22.9891 85.5196 21.1051 85.5196 17.7301C85.5196 13.8361 87.7306 12.5041 93.0066 12.5041C94.2966 12.5041 95.6066 12.6381 96.1726 12.6631V11.7501C96.1726 9.70709 95.3516 8.53409 92.8726 8.53409C92.2101 8.468 91.5418 8.57713 90.9348 8.85056C90.3277 9.124 89.8032 9.55213 89.4136 10.0921C88.9526 10.7701 88.7516 10.8711 87.9986 10.5781L86.6756 10.0251C85.9466 9.69809 85.7206 9.31309 86.1146 8.56809C87.2366 6.46509 89.5136 5.20009 92.9396 5.20009V5.20109ZM45.2206 9.23901e-05C50.1446 0.0590924 52.4986 2.44509 52.4986 6.80909V11.2561C52.4986 15.3431 50.3546 17.7801 45.6396 17.7801C45.4976 17.7801 45.3546 17.7721 45.2206 17.7721V14.2541H46.3006C46.5325 14.2561 46.7625 14.2122 46.9774 14.125C47.1922 14.0378 47.3878 13.909 47.5527 13.746C47.7176 13.5831 47.8488 13.3891 47.9385 13.1753C48.0282 12.9614 48.0748 12.732 48.0756 12.5001V5.24309C48.0714 4.77594 47.8822 4.32949 47.5496 4.00149C47.2169 3.6735 46.7678 3.49069 46.3006 3.49309H45.2206V9.23901e-05Z" fill="#00AFAA"/>
</svg>
