<?xml version="1.0" encoding="UTF-8" standalone="no"?>
<svg
   xmlns:dc="http://purl.org/dc/elements/1.1/"
   xmlns:cc="http://creativecommons.org/ns#"
   xmlns:rdf="http://www.w3.org/1999/02/22-rdf-syntax-ns#"
   xmlns:svg="http://www.w3.org/2000/svg"
   xmlns="http://www.w3.org/2000/svg"
   version="1.1"
   id="svg2"
   xml:space="preserve"
   width="240"
   height="181.42667"
   viewBox="0 0 240 181.42667"><metadata
     id="metadata8"><rdf:RDF><cc:Work
         rdf:about=""><dc:format>image/svg+xml</dc:format><dc:type
           rdf:resource="http://purl.org/dc/dcmitype/StillImage" /><dc:title></dc:title></cc:Work></rdf:RDF></metadata><defs
     id="defs6"><clipPath
       clipPathUnits="userSpaceOnUse"
       id="clipPath20"><path
         d="M 0,1360.66 V 0 h 1800 v 1360.66 z"
         id="path18" /></clipPath><clipPath
       clipPathUnits="userSpaceOnUse"
       id="clipPath30"><path
         d="M 1800,312 H 0 v 8.078 H 1800 V 312"
         id="path28" /></clipPath><linearGradient
       x1="0"
       y1="0"
       x2="1"
       y2="0"
       gradientUnits="userSpaceOnUse"
       gradientTransform="matrix(1800,0,0,-1800,0,316.04)"
       spreadMethod="pad"
       id="linearGradient42"><stop
         style="stop-opacity:1;stop-color:#ffffff"
         offset="0"
         id="stop32" /><stop
         style="stop-opacity:1;stop-color:#ffffff"
         offset="0.02"
         id="stop34" /><stop
         style="stop-opacity:1;stop-color:#494451"
         offset="0.5"
         id="stop36" /><stop
         style="stop-opacity:1;stop-color:#ffffff"
         offset="0.98"
         id="stop38" /><stop
         style="stop-opacity:1;stop-color:#ffffff"
         offset="1"
         id="stop40" /></linearGradient><clipPath
       clipPathUnits="userSpaceOnUse"
       id="clipPath52"><path
         d="M 0,1360.66 V 0 h 1800 v 1360.66 z"
         id="path50" /></clipPath></defs><g
     style="fill:#ffffff"
     id="g10"
     transform="matrix(1.3333333,0,0,-1.3333333,0,181.42667)"><g
       style="fill:#ffffff"
       id="g12"
       transform="scale(0.1)"><g
         style="fill:#ffffff"
         id="g14"><g
           style="fill:#ffffff"
           id="g16"
           clip-path="url(#clipPath20)"><path
             d="M 1800,311.988 H 0 v 8.09 h 1800 v -8.09 M 0,320.078 V 312 h 1800 v 8.078 H 0"
             style="fill:#ffffff;fill-opacity:1;fill-rule:nonzero;stroke:none"
             id="path22" /></g></g><g
         style="fill:#ffffff"
         id="g24"><g
           style="fill:#ffffff"
           id="g26"
           clip-path="url(#clipPath30)"><path
             d="m 0,312 h 1800 v 8.07813 H 0 Z"
             style="fill:#ffffff;fill-opacity:1;fill-rule:nonzero;stroke:none"
             id="path44" /></g></g><g
         style="fill:#ffffff"
         id="g46"><g
           style="fill:#ffffff"
           id="g48"
           clip-path="url(#clipPath52)"><path
             d="m 1000.8,178.289 c -5.929,6.383 -14.066,10.262 -22.644,10.262 -16.511,0 -29.914,-15.012 -29.914,-32.102 0,-17.07 13.52,-32.129 30.125,-32.129 8.367,0 16.504,4.16 22.433,10.289 V 123.93 c -6.402,-4.852 -14.261,-7.621 -22.148,-7.621 -20.953,0 -38.66,17.82 -38.66,39.851 0,22.199 17.434,40.418 38.66,40.418 8.282,0 15.559,-2.476 22.148,-7.609 v -10.68"
             style="fill:#ffffff;fill-opacity:1;fill-rule:nonzero;stroke:none"
             id="path54" /><path
             d="m 1030.18,156.449 c 0,-17.508 13.58,-32.129 30.4,-32.129 16.86,0 30.41,14.621 30.41,32.129 0,17.602 -13.36,32.102 -30.41,32.102 -17,0 -30.4,-14.5 -30.4,-32.102 z m 69.05,-0.09 c 0,-22.339 -17.48,-40.05 -38.65,-40.05 -21.11,0 -38.62,17.711 -38.62,40.05 0,22.192 17.51,40.219 38.62,40.219 21.17,0 38.65,-18.027 38.65,-40.219"
             style="fill:#ffffff;fill-opacity:1;fill-rule:nonzero;stroke:none"
             id="path56" /><path
             d="m 1347.43,178.289 c -5.9,6.383 -14.03,10.262 -22.57,10.262 -16.58,0 -29.92,-15.012 -29.92,-32.102 0,-17.07 13.44,-32.129 30.1,-32.129 8.36,0 16.49,4.16 22.39,10.289 V 123.93 c -6.4,-4.852 -14.22,-7.621 -22.12,-7.621 -20.93,0 -38.65,17.82 -38.65,39.851 0,22.199 17.43,40.418 38.65,40.418 8.25,0 15.55,-2.476 22.12,-7.609 v -10.68"
             style="fill:#ffffff;fill-opacity:1;fill-rule:nonzero;stroke:none"
             id="path58" /><path
             d="m 1130.98,125.711 h 20.44 v -8 h -28.67 v 77.578 h 8.23 v -69.578"
             style="fill:#ffffff;fill-opacity:1;fill-rule:nonzero;stroke:none"
             id="path60" /><path
             d="m 1184.61,125.711 h 20.46 v -8 h -28.73 v 77.578 h 8.27 v -69.578"
             style="fill:#ffffff;fill-opacity:1;fill-rule:nonzero;stroke:none"
             id="path62" /><path
             d="m 1228.42,195.289 h 38.39 v -8.07 h -30.16 v -23.008 h 29.3 v -8.031 h -29.3 v -30.469 h 30.16 v -8 h -38.39 v 77.578"
             style="fill:#ffffff;fill-opacity:1;fill-rule:nonzero;stroke:none"
             id="path64" /><path
             d="m 1393.07,117.711 h -8.25 v 69.508 h -17.9 v 8.07 h 44.25 v -8.07 h -18.1 v -69.508"
             style="fill:#ffffff;fill-opacity:1;fill-rule:nonzero;stroke:none"
             id="path66" /><path
             d="m 1430.66,117.711 h 8.3008 v 77.5781 h -8.3008 z"
             style="fill:#ffffff;fill-opacity:1;fill-rule:nonzero;stroke:none"
             id="path68" /><path
             d="m 1469.5,156.449 c 0,-17.508 13.57,-32.129 30.37,-32.129 16.83,0 30.41,14.621 30.41,32.129 0,17.602 -13.37,32.102 -30.41,32.102 -17,0 -30.37,-14.5 -30.37,-32.102 z m 69.04,-0.09 c 0,-22.339 -17.49,-40.05 -38.67,-40.05 -21.12,0 -38.65,17.711 -38.65,40.05 0,22.192 17.53,40.219 38.65,40.219 21.18,0 38.67,-18.027 38.67,-40.219"
             style="fill:#ffffff;fill-opacity:1;fill-rule:nonzero;stroke:none"
             id="path70" /><path
             d="m 1560.84,198.59 57.83,-63.43 v 60.149 h 8.24 V 114.18 l -57.78,63.332 v -59.813 h -8.29 v 80.891"
             style="fill:#ffffff;fill-opacity:1;fill-rule:nonzero;stroke:none"
             id="path72" /><path
             d="m 1651.7,189.738 h -2.53 v -4.957 h 2.53 c 1.49,0 2.56,1.059 2.56,2.469 0,1.422 -1.07,2.488 -2.56,2.488 z m 2.61,-12.347 -3.08,5.73 h -2.06 v -5.73 h -1.85 v 14.089 h 4.59 c 2.35,0 4.24,-1.839 4.24,-4.23 0,-2.051 -1.24,-3.352 -2.91,-3.879 l 3.26,-5.98 z m -3,18.007 c -5.69,0 -10.35,-4.929 -10.35,-10.968 0,-6.102 4.66,-11.032 10.35,-11.032 5.72,0 10.35,4.93 10.35,11.032 0,6.039 -4.63,10.968 -10.35,10.968 z m 0,-23.839 c -6.77,0 -12.26,5.73 -12.26,12.871 0,7.05 5.49,12.879 12.26,12.879 6.81,0 12.29,-5.829 12.29,-12.879 0,-7.141 -5.48,-12.871 -12.29,-12.871"
             style="fill:#ffffff;fill-opacity:1;fill-rule:nonzero;stroke:none"
             id="path74" /><path
             d="m 268.934,149.07 c 0,-5.718 -0.2,-12.332 3.242,-17.281 3.234,-4.719 9.531,-7.437 14.941,-7.437 5.289,0 11.106,2.589 14.543,6.937 3.942,4.949 3.641,11.699 3.641,17.781 v 46.219 h 8.242 v -48.551 c 0,-8.457 -0.563,-15.136 -6.453,-21.547 -5.129,-5.75 -12.488,-8.851 -19.973,-8.851 -6.988,0 -14.172,2.789 -19.183,7.922 -6.489,6.488 -7.25,13.566 -7.25,22.476 v 48.551 h 8.25 V 149.07"
             style="fill:#ffffff;fill-opacity:1;fill-rule:nonzero;stroke:none"
             id="path76" /><path
             d="m 361.969,117.699 h -8.281 v 69.551 h -17.883 v 8.039 h 44.246 v -8.039 h -18.082 v -69.551"
             style="fill:#ffffff;fill-opacity:1;fill-rule:nonzero;stroke:none"
             id="path78" /><path
             d="m 404.609,156.449 c 0,-17.48 13.551,-32.097 30.371,-32.097 16.813,0 30.372,14.617 30.372,32.097 0,17.621 -13.356,32.153 -30.372,32.153 -16.988,0 -30.371,-14.532 -30.371,-32.153 z m 69.016,-0.09 c 0,-22.289 -17.48,-40.05 -38.645,-40.05 -21.136,0 -38.644,17.761 -38.644,40.05 0,22.192 17.508,40.219 38.644,40.219 21.165,0 38.645,-18.027 38.645,-40.219"
             style="fill:#ffffff;fill-opacity:1;fill-rule:nonzero;stroke:none"
             id="path80" /><path
             d="m 755.801,159.68 h 5.504 c 9.156,0 16.925,2.871 16.925,14 0,12.64 -9.742,13.57 -19.394,13.57 h -3.035 z m 0,-41.981 h -8.262 v 77.59 h 12.18 c 6.39,0 12.972,-0.211 18.406,-4.117 5.516,-4.031 8.336,-10.813 8.336,-17.692 0,-6.269 -2.457,-12.699 -7.078,-16.691 -5.004,-4.32 -11.422,-5.148 -17.61,-5.148 h -5.972 v -33.942"
             style="fill:#ffffff;fill-opacity:1;fill-rule:nonzero;stroke:none"
             id="path82" /><path
             d="m 856.527,159.602 v 35.687 h 8.246 v -77.59 h -8.246 v 33.832 h -37.972 v -33.832 h -8.246 v 77.59 h 8.246 v -35.687 h 37.972"
             style="fill:#ffffff;fill-opacity:1;fill-rule:nonzero;stroke:none"
             id="path84" /><path
             d="m 628.219,117.699 h 9.797 l -20.192,35.903 c 1.852,0.75 3.656,1.796 5.281,3.187 4.598,3.992 7.063,10.422 7.063,16.691 0,6.879 -2.836,13.661 -8.359,17.692 -5.407,3.906 -11.989,4.117 -18.395,4.117 h -12.18 v -77.59 h 8.278 v 69.551 h 3.035 c 9.652,0 19.371,-0.93 19.371,-13.57 0,-10.93 -7.516,-13.891 -16.465,-14 l 22.766,-41.981"
             style="fill:#ffffff;fill-opacity:1;fill-rule:nonzero;stroke:none"
             id="path86" /><path
             d="m 566.828,156.648 h -30.887 c 2.954,-2.238 5.602,-4.949 7.813,-8.019 h 14.25 c 0,-6.508 -2.816,-12.129 -7.094,-16.301 -2.187,-2.129 -4.781,-3.937 -7.601,-5.258 -3.7,-1.75 -7.762,-2.718 -11.766,-2.718 -7.781,0 -15.637,4.207 -21.043,9.878 -5.102,5.442 -8.172,12.54 -8.617,20.09 l -0.043,1.84 c 0,2.328 0.23,4.621 0.691,6.871 2.981,14.328 14.942,25.571 29.59,25.571 10.914,0 18.289,-5.481 24.492,-14.633 l 5.996,5.859 c -7.871,10.703 -17.41,16.75 -30.406,16.75 -20.426,0 -37.121,-16.547 -38.512,-37.488 -0.07,-0.949 -0.097,-1.871 -0.097,-2.828 0,-2.282 0.195,-4.5 0.543,-6.66 3.097,-18.774 18.906,-33.293 37.593,-33.293 3.762,0 7.512,0.64 11.106,1.851 3.105,1.078 6.07,2.481 8.809,4.32 2.793,1.872 5.324,4.168 7.511,6.829 6.789,8.222 7.867,16.863 7.672,27.339"
             style="fill:#ffffff;fill-opacity:1;fill-rule:nonzero;stroke:none"
             id="path88" /><path
             d="m 196.996,152.281 11.039,26.547 16.371,-41.609 c -7.984,6.75 -17.265,11.91 -27.41,15.062 z m -23.172,-34.582 h 9.047 l 11.164,27.281 c 12.11,-3.558 22.922,-10.308 31.578,-19.371 2.371,-2.488 4.575,-5.109 6.594,-7.91 h 9.156 l -33.328,81.27 -18.82,-44.731 c -2.543,0.5 -5.145,0.871 -7.785,1.16 1.863,-2.617 3.468,-5.488 4.683,-8.546 l -12.289,-29.153"
             style="fill:#ffffff;fill-opacity:1;fill-rule:nonzero;stroke:none"
             id="path90" /><path
             d="m 681.555,152.281 10.832,26.547 16.605,-41.609 c -8.047,6.75 -17.328,11.91 -27.437,15.062 z m 11.023,46.688 -18.828,-44.731 c -2.527,0.5 -5.148,0.871 -7.773,1.16 1.867,-2.617 3.464,-5.488 4.668,-8.546 l -12.278,-29.153 h 9.059 l 11.14,27.281 c 12.102,-3.558 22.938,-10.308 31.606,-19.371 2.363,-2.488 4.539,-5.109 6.566,-7.91 h 9.172 l -33.332,81.27"
             style="fill:#ffffff;fill-opacity:1;fill-rule:nonzero;stroke:none"
             id="path92" /><path
             d="m 840.156,29.7109 c 0,12.5508 -8.933,23.0508 -21.73,23.0508 -12.789,0 -21.731,-10.5 -21.731,-23.0508 0,-13 9.965,-23.06246 21.731,-23.06246 11.773,0 21.73,10.06246 21.73,23.06246 z m 6.789,0 C 846.945,12.8008 834.168,0 818.426,0 802.68,0 789.91,12.8008 789.91,29.7109 c 0,16.3282 12.922,29.711 28.516,29.711 15.597,0 28.519,-13.3828 28.519,-29.711"
             style="fill:#ffffff;fill-opacity:1;fill-rule:nonzero;stroke:none"
             id="path94" /><path
             d="m 892.512,1.21875 h -6.785 V 51.6992 h -12.914 v 6.5 h 32.64 v -6.5 H 892.512 V 1.21875"
             style="fill:#ffffff;fill-opacity:1;fill-rule:nonzero;stroke:none"
             id="path96" /><path
             d="m 935.137,58.1992 h 29.23 v -6.5 H 941.918 V 35.75 h 21.809 v -6.5 H 941.918 V 7.71875 h 22.449 v -6.5 h -29.23 V 58.1992"
             style="fill:#ffffff;fill-opacity:1;fill-rule:nonzero;stroke:none"
             id="path98" /><path
             d="m 1003.89,7.71875 h 16.52 v -6.5 H 997.086 V 58.1992 h 6.804 V 7.71875"
             style="fill:#ffffff;fill-opacity:1;fill-rule:nonzero;stroke:none"
             id="path100" /><path
             d="m 1073.41,47.3984 c -2.01,3.5508 -4.61,5.3633 -8.73,5.3633 -4.33,0 -9.08,-3.0898 -9.08,-8.082 0,-4.4688 4.17,-6.8008 7.57,-8.168 l 3.9,-1.582 c 7.74,-3.168 13.52,-7.6602 13.52,-17.1602 C 1080.59,7.42188 1072.93,0 1063.17,0 c -8.8,0 -15.68,6.80859 -16.82,15.9414 l 6.88,1.5078 c -0.09,-6.25 4.67,-10.80076 10.52,-10.80076 5.85,0 10.04,5.14066 10.04,11.12106 0,6.1211 -4.7,8.75 -9.38,10.8086 l -3.76,1.6719 c -6.2,2.7891 -11.84,6.5 -11.84,14.4297 0,9.2109 7.78,14.7422 16.03,14.7422 6.05,0 11.04,-3.1016 14,-8.6133 l -5.43,-3.4102"
             style="fill:#ffffff;fill-opacity:1;fill-rule:nonzero;stroke:none"
             id="path102" /><path
             d="M 752.742,58.2305 V 33.0781 h -25.914 v 25.1524 h -6.832 V 1.28906 h 6.832 V 26.4297 h 25.914 V 1.28906 h 6.836 V 58.2305 h -6.836"
             style="fill:#ffffff;fill-opacity:1;fill-rule:nonzero;stroke:none"
             id="path104" /><path
             d="m 766.105,1137.36 c 1.235,-34.29 62.172,-105.46 95.512,-238.571 -26.64,63.176 -59.996,102.591 -75.992,119.951 -34.312,37.21 -45.863,78.26 -19.52,118.62"
             style="fill:#ffffff;fill-opacity:1;fill-rule:nonzero;stroke:none"
             id="path106" /><path
             d="m 860.586,1304.48 c -60.688,-124.66 18.344,-259.59 21.523,-446.062 -6.511,36.473 -27.515,132.895 -73.164,245.482 -43.715,107.81 43.063,192.13 51.641,200.58"
             style="fill:#ffffff;fill-opacity:1;fill-rule:nonzero;stroke:none"
             id="path108" /><path
             d="m 1031.52,1137.36 c -1.24,-34.29 -62.161,-105.46 -95.567,-238.571 26.645,63.176 60.047,102.591 76.077,119.951 34.31,37.21 45.83,78.26 19.49,118.62"
             style="fill:#ffffff;fill-opacity:1;fill-rule:nonzero;stroke:none"
             id="path110" /><path
             d="m 937.035,1304.48 c 60.688,-124.66 -18.359,-259.59 -21.492,-446.062 6.465,36.473 27.488,132.895 73.133,245.482 43.734,107.81 -43.063,192.13 -51.641,200.58"
             style="fill:#ffffff;fill-opacity:1;fill-rule:nonzero;stroke:none"
             id="path112" /><path
             d="m 898.809,808.703 c 12.461,272.687 57.039,417.597 0,551.957 -57.051,-134.36 -12.442,-279.27 0,-551.957"
             style="fill:#ffffff;fill-opacity:1;fill-rule:nonzero;stroke:none"
             id="path114" /><path
             d="m 703.211,576.789 h 22.684 V 733.586 H 705.434 V 617.473 L 625.309,733.586 H 602.531 V 576.789 h 20.473 v 116.129 l 80.207,-116.129"
             style="fill:#ffffff;fill-opacity:1;fill-rule:nonzero;stroke:none"
             id="path116" /><path
             d="m 404.551,635.16 26.375,66.555 26.207,-66.555 z m 75.558,-58.371 h 25.5 L 444.375,733.586 H 421.504 L 359.301,576.789 h 22.148 l 15.934,40.262 h 66.902 l 15.824,-40.262"
             style="fill:#ffffff;fill-opacity:1;fill-rule:nonzero;stroke:none"
             id="path118" /><path
             d="m 1086.22,635.16 26.33,66.555 26.24,-66.555 z m 75.54,-58.371 h 25.54 l -61.26,156.797 h -22.9 l -62.18,-156.797 h 22.16 l 15.9,40.262 h 66.92 l 15.82,-40.262"
             style="fill:#ffffff;fill-opacity:1;fill-rule:nonzero;stroke:none"
             id="path120" /><path
             d="m 895.055,657.699 63.285,75.887 H 931.539 L 870.527,659.5 v 74.086 H 847.172 V 576.789 h 23.355 v 75.418 C 894.16,619.992 977.719,526.371 1041.08,539.457 987.938,542.055 900.5,646.945 895.055,657.699"
             style="fill:#ffffff;fill-opacity:1;fill-rule:nonzero;stroke:none"
             id="path122" /><path
             d="m 259.949,708.727 v 22.605 c -65.742,19.316 -85.761,-13.195 -85.761,-33.199 0,-50.516 76.355,-49.606 71.187,-85.324 -4.758,-33.184 -47.066,-22.055 -71.641,-9.297 v -23.668 c 50.043,-16.844 96,-1.395 96,36.156 0,52.328 -72.804,52.094 -72.804,83.934 0,14.57 24.797,30.711 63.019,8.793"
             style="fill:#ffffff;fill-opacity:1;fill-rule:nonzero;stroke:none"
             id="path124" /><path
             d="m 631.129,438.246 v 60.137 h 11.082 l 29.586,-41.07 v 41.07 h 10.062 v -60.137 h -11.254 l -29.378,41.086 v -41.086 h -10.098"
             style="fill:#ffffff;fill-opacity:1;fill-rule:nonzero;stroke:none"
             id="path126" /><path
             d="m 825.617,438.246 h 12.5703 v 60.1367 H 825.617 Z"
             style="fill:#ffffff;fill-opacity:1;fill-rule:nonzero;stroke:none"
             id="path128" /><path
             d="m 1156.19,438.246 h 12.5586 v 60.1367 H 1156.19 Z"
             style="fill:#ffffff;fill-opacity:1;fill-rule:nonzero;stroke:none"
             id="path130" /><path
             d="m 740.809,460.457 10.082,25.813 10.093,-25.813 z m 28.867,-22.211 h 12.914 l -23.512,60.137 h -13.933 l -23.512,-60.137 h 10.488 l 5.621,14.367 h 26.313 l 5.621,-14.367"
             style="fill:#ffffff;fill-opacity:1;fill-rule:nonzero;stroke:none"
             id="path132" /><path
             d="m 1001.1,445.023 c -10.061,0 -16.01,10.426 -16.01,23.325 0,12.898 5.949,23.324 16.01,23.324 10.07,0 15.99,-10.426 15.99,-23.324 0,-12.899 -5.92,-23.325 -15.99,-23.325 z m 0,54.911 c -16.62,0 -28.893,-11.036 -28.893,-31.586 0,-20.555 12.273,-31.543 28.893,-31.543 16.63,0 28.91,10.988 28.91,31.543 0,20.55 -12.28,31.586 -28.91,31.586"
             style="fill:#ffffff;fill-opacity:1;fill-rule:nonzero;stroke:none"
             id="path134" /><path
             d="m 906.543,469.473 h -5.445 v 20.691 h 5.445 c 8.062,0 11.191,-4.644 11.129,-10.328 -0.047,-5.684 -3.067,-10.363 -11.129,-10.363 z m 12.93,-5.7 c 19.222,10.098 12.757,34.61 -7.59,34.61 h -22.606 v -60.137 h 11.821 v 23.008 h 6.933 l 14.996,-23.008 h 15.336 l -18.89,25.527"
             style="fill:#ffffff;fill-opacity:1;fill-rule:nonzero;stroke:none"
             id="path136" /><path
             d="m 1098.82,455.73 c 0,6.528 -4.97,9.594 -14.51,9.594 h -2.44 v -18.562 h 3.67 c 8.95,0 13.28,2.332 13.28,8.968 z m -2.92,26.969 c 0,6.637 -6.26,7.465 -11.48,7.465 h -2.55 v -16.793 h 2.98 c 6.59,0 11.05,3.551 11.05,9.328 z m -3.45,-44.453 h -22.44 v 60.137 h 19.05 c 7.98,0 20.14,-1.172 20.14,-13.336 0,-5.117 -2.91,-13.258 -14.52,-15.387 9.45,-1.332 16.98,-5.945 16.98,-15.183 0,-8.532 -5.18,-16.231 -19.21,-16.231"
             style="fill:#ffffff;fill-opacity:1;fill-rule:nonzero;stroke:none"
             id="path138" /><path
             d="m 1525.23,635.16 26.36,66.555 26.2,-66.555 z m 75.52,-58.371 h 25.52 l -61.24,156.797 h -22.9 l -62.19,-156.797 h 22.18 l 15.92,40.262 h 66.87 l 15.84,-40.262"
             style="fill:#ffffff;fill-opacity:1;fill-rule:nonzero;stroke:none"
             id="path140" /><path
             d="m 1322.21,658.875 h -13.07 v 56.68 h 13.07 c 22.88,0 34,-12.617 34,-28.223 0,-15.652 -11.12,-28.457 -34,-28.457 z m 29.02,-12.477 c 48.57,19.067 37.69,87.188 -17.72,87.188 h -47.74 V 576.805 h 23.37 v 64.054 h 19.38 l 44.12,-64.054 h 29.01 l -50.42,69.593"
             style="fill:#ffffff;fill-opacity:1;fill-rule:nonzero;stroke:none"
             id="path142" /></g></g></g></g></svg>